<svg width="178" height="167" viewBox="0 0 178 167" fill="none" xmlns="http://www.w3.org/2000/svg">
<path d="M139.054 1.73801C137.949 0.625679 136.447 0 134.883 0C133.319 0 131.817 0.625679 130.712 1.73801L93.5048 38.9449C92.3925 40.0502 91.7668 41.5518 91.7668 43.1162C91.7668 44.6806 92.3925 46.1821 93.5048 47.2875L108.799 62.5821L109.981 61.0109C110.718 60.0307 111.587 59.1547 112.567 58.4109L97.4397 43.3388C97.3215 43.2137 97.3215 43.019 97.4397 42.8939L134.661 5.67278C134.786 5.55459 134.981 5.55459 135.106 5.67278L172.327 42.8939C172.445 43.019 172.445 43.2137 172.327 43.3388L135.106 80.5599C134.981 80.6781 134.786 80.6781 134.661 80.5599L131.88 77.7791L128.71 81.9504C129.224 82.5413 129.69 83.174 130.1 83.8414L130.768 84.5088C131.873 85.6211 133.375 86.2468 134.939 86.2468C136.503 86.2468 138.005 85.6211 139.11 84.5088L176.262 47.2877C177.374 46.1823 178 44.6807 178 43.1163C178 41.552 177.374 40.0504 176.262 38.945L139.054 1.73801Z" fill="#51A646"/>
<path d="M81.4356 79.5738C78.057 81.715 76.2077 86.651 75.874 94.6736L72.4954 120.731L71.5082 119.994C70.9173 119.556 70.1734 119.368 69.4434 119.472C68.7134 119.577 68.0529 119.973 67.615 120.564L57.5764 133.995C56.756 135.226 57.048 136.88 58.2298 137.763C59.4117 138.646 61.0803 138.451 62.0256 137.318L70.3681 126.111L104.03 151.138L95.6873 162.345C94.7488 163.568 94.9782 165.327 96.2017 166.266C97.4253 167.204 99.1842 166.975 100.123 165.751L110.161 152.32C110.599 151.729 110.787 150.985 110.683 150.255C110.578 149.525 110.182 148.864 109.591 148.427L109.369 148.26C114.833 143.609 119.88 138.492 124.455 132.965L124.552 132.868L124.761 132.59C125.484 131.7 126.151 130.796 126.902 129.809C127.02 129.642 127.124 129.468 127.208 129.281L136.009 117.587C137.309 115.87 137.858 113.694 137.525 111.567C137.017 108.251 134.542 105.581 131.282 104.809C131.831 103.461 132.005 101.994 131.782 100.555C131.296 97.3917 129.029 94.8054 125.956 93.9086C126.77 91.7882 126.666 89.4176 125.671 87.3806C124.67 85.3367 122.863 83.8003 120.687 83.1468L127.472 74.137C128.758 72.4406 129.307 70.3065 129.001 68.2C128.549 64.9326 126.179 62.2561 122.995 61.4078C119.811 60.5527 116.425 61.6929 114.402 64.293L94.3251 91.0991C94.3947 88.0473 93.6299 85.0299 92.1144 82.3813C90.9117 80.5181 89.0068 79.2321 86.8307 78.808C85.0094 78.2657 83.0349 78.5438 81.436 79.5727L81.4356 79.5738ZM87.4838 85.4691C88.4293 87.2558 88.8812 89.2649 88.7769 91.281C88.7978 93.6099 88.6101 95.9389 88.2208 98.2329C88.04 99.5399 87.5116 101.111 88.2208 102.404C88.7143 103.12 89.5138 103.565 90.3828 103.607C91.2448 103.649 92.086 103.28 92.6421 102.613L92.7533 102.488L118.88 67.7279C119.756 66.6156 121.368 66.4279 122.481 67.2969C123.051 67.721 123.426 68.3466 123.524 69.0488C123.621 69.6884 123.454 70.3419 123.065 70.8563L96.9117 105.616C96.001 106.916 96.3138 108.717 97.6139 109.627C98.9139 110.538 100.714 110.225 101.625 108.925L116.322 89.4586C117.212 88.381 118.79 88.2003 119.909 89.0415C121.021 89.8757 121.279 91.4469 120.493 92.6009L117.476 96.6053L117.212 96.9112L105.685 112.22C104.816 113.443 105.08 115.139 106.276 116.043C107.479 116.947 109.175 116.738 110.121 115.57L120.688 101.513L121.814 100.012C122.718 99.0247 124.233 98.8995 125.29 99.7199C125.867 100.151 126.242 100.797 126.333 101.513C126.437 102.167 126.27 102.834 125.874 103.363L114.417 118.532C113.541 119.909 113.882 121.73 115.195 122.703C116.419 123.628 118.164 123.385 119.089 122.161L127.431 111.121C128.307 110.009 129.92 109.821 131.032 110.69C131.623 111.114 132.005 111.761 132.103 112.484C132.207 113.137 132.04 113.805 131.644 114.333L120.521 129.141C115.8 134.842 110.565 140.097 104.879 144.839L77.6132 124.553L81.3534 95.2859V95.0634C81.7428 86.8045 83.7171 84.7745 84.3151 84.3435C85.344 83.6066 86.9012 84.5798 87.4851 85.4697L87.4838 85.4691Z" fill="#5B5E7A"/>
<path d="M38.9449 84.4956C40.0502 85.608 41.5518 86.2336 43.1162 86.2336C44.6806 86.2336 46.1821 85.608 47.2875 84.4956L84.4944 47.2887C85.6067 46.1834 86.2324 44.6818 86.2324 43.1174C86.2324 41.5531 85.6067 40.0515 84.4944 38.9461L47.2875 1.73923C46.1821 0.6269 44.6806 0.0012207 43.1162 0.0012207C41.5518 0.0012207 40.0503 0.6269 38.9449 1.73923L1.73801 38.9461C0.625679 40.0515 0 41.5531 0 43.1174C0 44.6818 0.625679 46.1834 1.73801 47.2887L38.9449 84.4956ZM5.67297 42.8946L42.8941 5.67348C43.0192 5.5553 43.2139 5.5553 43.339 5.67348L80.5601 42.8946C80.6783 43.0197 80.6783 43.2144 80.5601 43.3395L43.339 80.5607C43.2139 80.6789 43.0192 80.6789 42.8941 80.5607L5.67297 43.3395C5.55478 43.2144 5.55478 43.0197 5.67297 42.8946Z" fill="#5B5E7A"/>
<path d="M73.9769 136.824C76.9524 139.042 73.6224 143.498 70.6538 141.28C67.6783 139.062 71.0084 134.606 73.9769 136.824Z" fill="#5B5E7A"/>
<path d="M32.6536 55.7997C32.1592 55.7997 31.7514 55.639 31.4301 55.3177C31.1335 54.9964 30.9852 54.6009 30.9852 54.1313C30.9852 53.9335 31.047 53.6864 31.1705 53.3898L40.625 31.0699C40.8227 30.625 41.0946 30.2665 41.4407 29.9947C41.8114 29.698 42.2563 29.5497 42.7754 29.5497H43.1462C43.6652 29.5497 44.0978 29.698 44.4438 29.9947C44.8146 30.2665 45.0989 30.625 45.2966 31.0699L54.751 53.3898C54.8746 53.6864 54.9364 53.9335 54.9364 54.1313C54.9364 54.6009 54.7757 54.9964 54.4544 55.3177C54.1578 55.639 53.7623 55.7997 53.268 55.7997C52.9219 55.7997 52.6006 55.7132 52.304 55.5402C52.0321 55.3424 51.822 55.0829 51.6737 54.7616L49.2637 48.9777H36.6578L34.2479 54.7616C34.0996 55.0829 33.8771 55.3424 33.5805 55.5402C33.3086 55.7132 32.9996 55.7997 32.6536 55.7997ZM37.9555 45.9004H47.9661L42.9608 33.8506L37.9555 45.9004Z" fill="#5B5E7A"/>
<path d="M128.411 55.6143C127.941 55.6143 127.546 55.4537 127.224 55.1323C126.903 54.811 126.742 54.4155 126.742 53.9459V31.4406C126.742 30.971 126.903 30.5755 127.224 30.2542C127.546 29.9081 127.941 29.7351 128.411 29.7351H137.161C139.806 29.7351 141.845 30.3407 143.278 31.5519C144.737 32.763 145.466 34.3944 145.466 36.4459C145.466 37.8795 145.12 39.0783 144.428 40.0423C143.76 40.9816 142.895 41.686 141.832 42.1557C143.316 42.6253 144.527 43.3792 145.466 44.4173C146.43 45.4554 146.912 46.7655 146.912 48.3474C146.912 50.6214 146.146 52.4011 144.613 53.6864C143.081 54.9717 140.671 55.6143 137.383 55.6143H128.411ZM136.271 40.9321C138.471 40.9321 140.016 40.5614 140.906 39.8199C141.795 39.0783 142.24 38.0402 142.24 36.7055C142.24 35.5437 141.758 34.6168 140.794 33.9247C139.855 33.2326 138.557 32.8866 136.901 32.8866H130.116V40.9321H136.271ZM137.05 52.4628C139.447 52.4628 141.14 52.0921 142.129 51.3506C143.142 50.609 143.649 49.5585 143.649 48.1991C143.649 45.3813 141.462 43.9724 137.087 43.9724H130.116V52.4628H137.05Z" fill="#51A646"/>
<path d="M139.054 1.73801C137.949 0.625679 136.447 0 134.883 0C133.319 0 131.817 0.625679 130.712 1.73801L93.5048 38.9449C92.3925 40.0502 91.7668 41.5518 91.7668 43.1162C91.7668 44.6806 92.3925 46.1821 93.5048 47.2875L108.799 62.5821L109.981 61.0109C110.718 60.0307 111.587 59.1547 112.567 58.4109L97.4397 43.3388C97.3215 43.2137 97.3215 43.019 97.4397 42.8939L134.661 5.67278C134.786 5.55459 134.981 5.55459 135.106 5.67278L172.327 42.8939C172.445 43.019 172.445 43.2137 172.327 43.3388L135.106 80.5599C134.981 80.6781 134.786 80.6781 134.661 80.5599L131.88 77.7791L128.71 81.9504C129.224 82.5413 129.69 83.174 130.1 83.8414L130.768 84.5088C131.873 85.6211 133.375 86.2468 134.939 86.2468C136.503 86.2468 138.005 85.6211 139.11 84.5088L176.262 47.2877C177.374 46.1823 178 44.6807 178 43.1163C178 41.552 177.374 40.0504 176.262 38.945L139.054 1.73801Z" fill="#51A646"/>
<path d="M81.4356 79.5738C78.057 81.715 76.2077 86.651 75.874 94.6736L72.4954 120.731L71.5082 119.994C70.9173 119.556 70.1734 119.368 69.4434 119.472C68.7134 119.577 68.0529 119.973 67.615 120.564L57.5764 133.995C56.756 135.226 57.048 136.88 58.2298 137.763C59.4117 138.646 61.0803 138.451 62.0256 137.318L70.3681 126.111L104.03 151.138L95.6873 162.345C94.7488 163.568 94.9782 165.327 96.2017 166.266C97.4253 167.204 99.1842 166.975 100.123 165.751L110.161 152.32C110.599 151.729 110.787 150.985 110.683 150.255C110.578 149.525 110.182 148.864 109.591 148.427L109.369 148.26C114.833 143.609 119.88 138.492 124.455 132.965L124.552 132.868L124.761 132.59C125.484 131.7 126.151 130.796 126.902 129.809C127.02 129.642 127.124 129.468 127.208 129.281L136.009 117.587C137.309 115.87 137.858 113.694 137.525 111.567C137.017 108.251 134.542 105.581 131.282 104.809C131.831 103.461 132.005 101.994 131.782 100.555C131.296 97.3917 129.029 94.8054 125.956 93.9086C126.77 91.7882 126.666 89.4176 125.671 87.3806C124.67 85.3367 122.863 83.8003 120.687 83.1468L127.472 74.137C128.758 72.4406 129.307 70.3065 129.001 68.2C128.549 64.9326 126.179 62.2561 122.995 61.4078C119.811 60.5527 116.425 61.6929 114.402 64.293L94.3251 91.0991C94.3947 88.0473 93.6299 85.0299 92.1144 82.3813C90.9117 80.5181 89.0068 79.2321 86.8307 78.808C85.0094 78.2657 83.0349 78.5438 81.436 79.5727L81.4356 79.5738ZM87.4838 85.4691C88.4293 87.2558 88.8812 89.2649 88.7769 91.281C88.7978 93.6099 88.6101 95.9389 88.2208 98.2329C88.04 99.5399 87.5116 101.111 88.2208 102.404C88.7143 103.12 89.5138 103.565 90.3828 103.607C91.2448 103.649 92.086 103.28 92.6421 102.613L92.7533 102.488L118.88 67.7279C119.756 66.6156 121.368 66.4279 122.481 67.2969C123.051 67.721 123.426 68.3466 123.524 69.0488C123.621 69.6884 123.454 70.3419 123.065 70.8563L96.9117 105.616C96.001 106.916 96.3138 108.717 97.6139 109.627C98.9139 110.538 100.714 110.225 101.625 108.925L116.322 89.4586C117.212 88.381 118.79 88.2003 119.909 89.0415C121.021 89.8757 121.279 91.4469 120.493 92.6009L117.476 96.6053L117.212 96.9112L105.685 112.22C104.816 113.443 105.08 115.139 106.276 116.043C107.479 116.947 109.175 116.738 110.121 115.57L120.688 101.513L121.814 100.012C122.718 99.0247 124.233 98.8995 125.29 99.7199C125.867 100.151 126.242 100.797 126.333 101.513C126.437 102.167 126.27 102.834 125.874 103.363L114.417 118.532C113.541 119.909 113.882 121.73 115.195 122.703C116.419 123.628 118.164 123.385 119.089 122.161L127.431 111.121C128.307 110.009 129.92 109.821 131.032 110.69C131.623 111.114 132.005 111.761 132.103 112.484C132.207 113.137 132.04 113.805 131.644 114.333L120.521 129.141C115.8 134.842 110.565 140.097 104.879 144.839L77.6132 124.553L81.3534 95.2859V95.0634C81.7428 86.8045 83.7171 84.7745 84.3151 84.3435C85.344 83.6066 86.9012 84.5798 87.4851 85.4697L87.4838 85.4691Z" fill="#5B5E7A"/>
<path d="M38.9449 84.4956C40.0502 85.608 41.5518 86.2336 43.1162 86.2336C44.6806 86.2336 46.1821 85.608 47.2875 84.4956L84.4944 47.2887C85.6067 46.1834 86.2324 44.6818 86.2324 43.1174C86.2324 41.5531 85.6067 40.0515 84.4944 38.9461L47.2875 1.73923C46.1821 0.6269 44.6806 0.0012207 43.1162 0.0012207C41.5518 0.0012207 40.0503 0.6269 38.9449 1.73923L1.73801 38.9461C0.625679 40.0515 0 41.5531 0 43.1174C0 44.6818 0.625679 46.1834 1.73801 47.2887L38.9449 84.4956ZM5.67297 42.8946L42.8941 5.67348C43.0192 5.5553 43.2139 5.5553 43.339 5.67348L80.5601 42.8946C80.6783 43.0197 80.6783 43.2144 80.5601 43.3395L43.339 80.5607C43.2139 80.6789 43.0192 80.6789 42.8941 80.5607L5.67297 43.3395C5.55478 43.2144 5.55478 43.0197 5.67297 42.8946Z" fill="#5B5E7A"/>
<path d="M73.9769 136.824C76.9524 139.042 73.6224 143.498 70.6538 141.28C67.6783 139.062 71.0084 134.606 73.9769 136.824Z" fill="#5B5E7A"/>
<path d="M32.6536 55.7997C32.1592 55.7997 31.7514 55.639 31.4301 55.3177C31.1335 54.9964 30.9852 54.6009 30.9852 54.1313C30.9852 53.9335 31.047 53.6864 31.1705 53.3898L40.625 31.0699C40.8227 30.625 41.0946 30.2665 41.4407 29.9947C41.8114 29.698 42.2563 29.5497 42.7754 29.5497H43.1462C43.6652 29.5497 44.0978 29.698 44.4438 29.9947C44.8146 30.2665 45.0989 30.625 45.2966 31.0699L54.751 53.3898C54.8746 53.6864 54.9364 53.9335 54.9364 54.1313C54.9364 54.6009 54.7757 54.9964 54.4544 55.3177C54.1578 55.639 53.7623 55.7997 53.268 55.7997C52.9219 55.7997 52.6006 55.7132 52.304 55.5402C52.0321 55.3424 51.822 55.0829 51.6737 54.7616L49.2637 48.9777H36.6578L34.2479 54.7616C34.0996 55.0829 33.8771 55.3424 33.5805 55.5402C33.3086 55.7132 32.9996 55.7997 32.6536 55.7997ZM37.9555 45.9004H47.9661L42.9608 33.8506L37.9555 45.9004Z" fill="#5B5E7A"/>
<path d="M128.411 55.6143C127.941 55.6143 127.546 55.4537 127.224 55.1323C126.903 54.811 126.742 54.4155 126.742 53.9459V31.4406C126.742 30.971 126.903 30.5755 127.224 30.2542C127.546 29.9081 127.941 29.7351 128.411 29.7351H137.161C139.806 29.7351 141.845 30.3407 143.278 31.5519C144.737 32.763 145.466 34.3944 145.466 36.4459C145.466 37.8795 145.12 39.0783 144.428 40.0423C143.76 40.9816 142.895 41.686 141.832 42.1557C143.316 42.6253 144.527 43.3792 145.466 44.4173C146.43 45.4554 146.912 46.7655 146.912 48.3474C146.912 50.6214 146.146 52.4011 144.613 53.6864C143.081 54.9717 140.671 55.6143 137.383 55.6143H128.411ZM136.271 40.9321C138.471 40.9321 140.016 40.5614 140.906 39.8199C141.795 39.0783 142.24 38.0402 142.24 36.7055C142.24 35.5437 141.758 34.6168 140.794 33.9247C139.855 33.2326 138.557 32.8866 136.901 32.8866H130.116V40.9321H136.271ZM137.05 52.4628C139.447 52.4628 141.14 52.0921 142.129 51.3506C143.142 50.609 143.649 49.5585 143.649 48.1991C143.649 45.3813 141.462 43.9724 137.087 43.9724H130.116V52.4628H137.05Z" fill="#51A646"/>
</svg>
